# Blender v2.90.1 OBJ File: 'King.blend'
# www.blender.org
mtllib King.mtl
o Cylinder_Cylinder.002
v 0.000000 0.000000 -1.000000
v 0.000000 0.250000 -1.000000
v 0.382683 0.000000 -0.923880
v 0.382683 0.250000 -0.923880
v 0.707107 0.000000 -0.707107
v 0.707107 0.250000 -0.707107
v 0.923880 0.000000 -0.382683
v 0.923880 0.250000 -0.382683
v 1.000000 0.000000 0.000000
v 1.000000 0.250000 0.000000
v 0.923880 0.000000 0.382684
v 0.923880 0.250000 0.382684
v 0.707107 0.000000 0.707107
v 0.707107 0.250000 0.707107
v 0.382683 0.000000 0.923880
v 0.382683 0.250000 0.923880
v 0.000000 0.000000 1.000000
v 0.000000 0.250000 1.000000
v -0.382683 0.000000 0.923880
v -0.382683 0.250000 0.923880
v -0.707107 0.000000 0.707107
v -0.707107 0.250000 0.707107
v -0.923880 0.000000 0.382684
v -0.923880 0.250000 0.382684
v -1.000000 0.000000 -0.000000
v -1.000000 0.250000 -0.000000
v -0.923879 0.000000 -0.382684
v -0.923879 0.250000 -0.382684
v -0.707107 0.000000 -0.707107
v -0.707107 0.250000 -0.707107
v -0.382683 0.000000 -0.923880
v -0.382683 0.250000 -0.923880
v 0.326189 0.250000 -0.787490
v 0.000000 0.250000 -0.852373
v 0.602719 0.250000 -0.602719
v 0.787490 0.250000 -0.326189
v 0.852373 0.250000 0.000000
v 0.787490 0.250000 0.326189
v 0.602719 0.250000 0.602719
v 0.326189 0.250000 0.787490
v 0.000000 0.250000 0.852373
v -0.326189 0.250000 0.787490
v -0.602718 0.250000 0.602719
v -0.787490 0.250000 0.326189
v -0.852373 0.250000 -0.000000
v -0.787490 0.250000 -0.326189
v -0.602718 0.250000 -0.602719
v -0.326189 0.250000 -0.787490
v 0.183916 3.208752 -0.444013
v 0.000000 3.208752 -0.480596
v 0.339833 3.208752 -0.339833
v 0.444013 3.208752 -0.183916
v 0.480596 3.208752 0.000000
v 0.444013 3.208752 0.183916
v 0.339833 3.208752 0.339833
v 0.183916 3.208752 0.444013
v 0.000000 3.208752 0.480596
v -0.183916 3.208752 0.444013
v -0.339833 3.208752 0.339833
v -0.444013 3.208752 0.183916
v -0.480596 3.208752 -0.000000
v -0.444013 3.208752 -0.183916
v -0.339833 3.208752 -0.339833
v -0.183916 3.208752 -0.444013
v 0.226005 3.208752 -0.545623
v 0.000000 3.208752 -0.590579
v 0.417602 3.208752 -0.417602
v 0.545623 3.208752 -0.226005
v 0.590579 3.208752 0.000000
v 0.545623 3.208752 0.226005
v 0.417602 3.208752 0.417602
v 0.226005 3.208752 0.545623
v 0.000000 3.208752 0.590579
v -0.226005 3.208752 0.545624
v -0.417602 3.208752 0.417602
v -0.545623 3.208752 0.226005
v -0.590579 3.208752 -0.000000
v -0.545623 3.208752 -0.226005
v -0.417602 3.208752 -0.417602
v -0.226004 3.208752 -0.545624
v 0.226005 3.321753 -0.545623
v 0.000000 3.321753 -0.590579
v 0.417602 3.321753 -0.417602
v 0.545623 3.321753 -0.226005
v 0.590579 3.321753 0.000000
v 0.545623 3.321753 0.226005
v 0.417602 3.321753 0.417602
v 0.226005 3.321753 0.545623
v 0.000000 3.321753 0.590579
v -0.226005 3.321753 0.545624
v -0.417602 3.321753 0.417602
v -0.545623 3.321753 0.226005
v -0.590579 3.321753 -0.000000
v -0.545623 3.321753 -0.226005
v -0.417602 3.321753 -0.417602
v -0.226004 3.321753 -0.545624
v 0.191097 3.321753 -0.461349
v 0.000000 3.321753 -0.499361
v 0.353101 3.321753 -0.353101
v 0.461349 3.321753 -0.191097
v 0.499361 3.321753 0.000000
v 0.461349 3.321753 0.191097
v 0.353101 3.321753 0.353101
v 0.191097 3.321753 0.461349
v 0.000000 3.321753 0.499361
v -0.191097 3.321753 0.461349
v -0.353101 3.321753 0.353101
v -0.461349 3.321753 0.191097
v -0.499361 3.321753 -0.000000
v -0.461349 3.321753 -0.191097
v -0.353101 3.321753 -0.353101
v -0.191097 3.321753 -0.461349
v -0.000000 0.000000 0.000000
v -0.000000 3.919435 0.000000
v 0.164370 3.919435 -0.396825
v 0.216869 3.763258 -0.523568
v 0.000000 3.763258 -0.566706
v 0.000000 3.919435 -0.429520
v 0.303717 3.919435 -0.303717
v 0.400722 3.763258 -0.400722
v 0.396825 3.919435 -0.164370
v 0.523568 3.763258 -0.216869
v 0.429520 3.919435 0.000000
v 0.566706 3.763258 0.000000
v 0.396825 3.919435 0.164370
v 0.523568 3.763258 0.216869
v 0.303717 3.919435 0.303717
v 0.400722 3.763258 0.400722
v 0.164370 3.919435 0.396825
v 0.216869 3.763258 0.523568
v 0.000000 3.919435 0.429520
v 0.000000 3.763258 0.566706
v -0.164370 3.919435 0.396825
v -0.216869 3.763258 0.523568
v -0.303717 3.919435 0.303717
v -0.400721 3.763258 0.400722
v -0.396825 3.919435 0.164370
v -0.523568 3.763258 0.216869
v -0.429520 3.919435 -0.000000
v -0.566706 3.763258 -0.000000
v -0.396825 3.919435 -0.164370
v -0.523568 3.763258 -0.216869
v -0.303717 3.919435 -0.303717
v -0.400721 3.763258 -0.400722
v -0.164370 3.919435 -0.396825
v -0.216869 3.763258 -0.523568
v -0.125000 3.894430 0.125000
v -0.125000 4.279805 0.125000
v -0.125000 3.894430 -0.125000
v -0.125000 4.279805 -0.125000
v 0.125000 3.894430 0.125000
v 0.125000 4.279805 0.125000
v 0.125000 3.894430 -0.125000
v 0.125000 4.279805 -0.125000
v -0.400849 4.279805 0.125000
v -0.400849 4.279805 -0.125000
v 0.400849 4.279805 -0.125000
v 0.400849 4.279805 0.125000
v -0.400849 4.459313 0.125000
v -0.400849 4.459313 -0.125000
v 0.400849 4.459313 -0.125000
v 0.400849 4.459313 0.125000
v -0.127532 4.459313 0.125000
v -0.127532 4.459313 -0.125000
v 0.127532 4.459313 -0.125000
v 0.127532 4.459313 0.125000
v -0.127532 4.693044 0.125000
v -0.127532 4.693044 -0.125000
v 0.127532 4.693044 -0.125000
v 0.127532 4.693044 0.125000
vt 1.000000 0.500000
vt 1.000000 1.000000
vt 0.937500 1.000000
vt 0.937500 0.500000
vt 0.875000 1.000000
vt 0.875000 0.500000
vt 0.812500 1.000000
vt 0.812500 0.500000
vt 0.750000 1.000000
vt 0.750000 0.500000
vt 0.687500 1.000000
vt 0.687500 0.500000
vt 0.625000 1.000000
vt 0.625000 0.500000
vt 0.562500 1.000000
vt 0.562500 0.500000
vt 0.500000 1.000000
vt 0.500000 0.500000
vt 0.437500 1.000000
vt 0.437500 0.500000
vt 0.375000 1.000000
vt 0.375000 0.500000
vt 0.312500 1.000000
vt 0.312500 0.500000
vt 0.250000 1.000000
vt 0.250000 0.500000
vt 0.187500 1.000000
vt 0.187500 0.500000
vt 0.125000 1.000000
vt 0.125000 0.500000
vt 0.937500 1.000000
vt 0.875000 1.000000
vt 0.062500 1.000000
vt 0.062500 0.500000
vt 0.000000 1.000000
vt 0.000000 0.500000
vt 0.875000 1.000000
vt 0.937500 1.000000
vt 0.937500 1.000000
vt 0.875000 1.000000
vt 0.937500 1.000000
vt 0.875000 1.000000
vt 0.625000 1.000000
vt 0.562500 1.000000
vt 0.312500 1.000000
vt 0.250000 1.000000
vt 0.750000 1.000000
vt 0.687500 1.000000
vt 0.437500 1.000000
vt 0.375000 1.000000
vt 0.125000 1.000000
vt 0.062500 1.000000
vt 0.812500 1.000000
vt 0.500000 1.000000
vt 1.000000 1.000000
vt 0.187500 1.000000
vt 0.000000 1.000000
vt 0.562500 1.000000
vt 0.625000 1.000000
vt 0.625000 1.000000
vt 0.562500 1.000000
vt 0.437500 1.000000
vt 0.375000 1.000000
vt 0.812500 1.000000
vt 0.312500 1.000000
vt 0.750000 1.000000
vt 0.250000 1.000000
vt 0.687500 1.000000
vt 0.187500 1.000000
vt 0.125000 1.000000
vt 0.062500 1.000000
vt 0.500000 1.000000
vt 1.000000 1.000000
vt 0.000000 1.000000
vt 0.250000 1.000000
vt 0.312500 1.000000
vt 0.312500 1.000000
vt 0.250000 1.000000
vt 0.125000 1.000000
vt 0.062500 1.000000
vt 0.500000 1.000000
vt 1.000000 1.000000
vt 0.937500 1.000000
vt 0.000000 1.000000
vt 0.437500 1.000000
vt 0.875000 1.000000
vt 0.375000 1.000000
vt 0.812500 1.000000
vt 0.750000 1.000000
vt 0.687500 1.000000
vt 0.187500 1.000000
vt 0.875000 1.000000
vt 0.937500 1.000000
vt 0.750000 1.000000
vt 0.687500 1.000000
vt 0.187500 1.000000
vt 0.625000 1.000000
vt 0.125000 1.000000
vt 0.562500 1.000000
vt 0.062500 1.000000
vt 0.500000 1.000000
vt 1.000000 1.000000
vt 0.000000 1.000000
vt 0.437500 1.000000
vt 0.375000 1.000000
vt 0.812500 1.000000
vt 0.250000 0.075436
vt 0.316803 0.088724
vt 0.250000 0.250000
vt 0.437500 1.000000
vt 0.375000 1.000000
vt 0.812500 1.000000
vt 0.312500 1.000000
vt 0.750000 1.000000
vt 0.250000 1.000000
vt 0.687500 1.000000
vt 0.187500 1.000000
vt 0.625000 1.000000
vt 0.125000 1.000000
vt 0.562500 1.000000
vt 0.062500 1.000000
vt 0.500000 1.000000
vt 1.000000 1.000000
vt 0.000000 1.000000
vt 0.183197 0.088724
vt 0.373435 0.373435
vt 0.316803 0.411276
vt 0.411276 0.316803
vt 0.126565 0.126565
vt 0.250000 0.424564
vt 0.183197 0.411276
vt 0.088724 0.183197
vt 0.424564 0.250000
vt 0.075436 0.250000
vt 0.411276 0.183197
vt 0.088724 0.316803
vt 0.373435 0.126565
vt 0.126565 0.373435
vt 0.750000 0.490000
vt 0.841844 0.471731
vt 0.750000 0.250000
vt 0.919706 0.419706
vt 0.971731 0.341844
vt 0.990000 0.250000
vt 0.971731 0.158156
vt 0.919706 0.080294
vt 0.841844 0.028269
vt 0.750000 0.010000
vt 0.658156 0.028269
vt 0.580294 0.080294
vt 0.528269 0.158156
vt 0.510000 0.250000
vt 0.528269 0.341844
vt 0.580294 0.419706
vt 0.658156 0.471731
vt 0.062500 1.000000
vt 0.000000 1.000000
vt 0.125000 1.000000
vt 0.187500 1.000000
vt 0.250000 1.000000
vt 0.312500 1.000000
vt 0.375000 1.000000
vt 0.437500 1.000000
vt 0.500000 1.000000
vt 0.562500 1.000000
vt 0.625000 1.000000
vt 0.687500 1.000000
vt 0.750000 1.000000
vt 0.812500 1.000000
vt 1.000000 1.000000
vt 0.991480 1.000000
vt 0.946020 1.000000
vt 0.928980 1.000000
vt 0.883520 1.000000
vt 0.866480 1.000000
vt 0.821020 1.000000
vt 0.803980 1.000000
vt 0.758520 1.000000
vt 0.741480 1.000000
vt 0.696020 1.000000
vt 0.678980 1.000000
vt 0.633520 1.000000
vt 0.616480 1.000000
vt 0.571020 1.000000
vt 0.553980 1.000000
vt 0.508520 1.000000
vt 0.491480 1.000000
vt 0.446020 1.000000
vt 0.428980 1.000000
vt 0.383520 1.000000
vt 0.366480 1.000000
vt 0.321020 1.000000
vt 0.303980 1.000000
vt 0.258520 1.000000
vt 0.241480 1.000000
vt 0.196020 1.000000
vt 0.178980 1.000000
vt 0.133520 1.000000
vt 0.116480 1.000000
vt 0.071020 1.000000
vt 0.053980 1.000000
vt 0.008520 1.000000
vt 0.375000 0.000000
vt 0.625000 0.000000
vt 0.625000 0.250000
vt 0.375000 0.250000
vt 0.625000 0.500000
vt 0.375000 0.500000
vt 0.625000 0.750000
vt 0.375000 0.750000
vt 0.625000 1.000000
vt 0.375000 1.000000
vt 0.625000 0.750000
vt 0.625000 0.500000
vt 0.625000 0.500000
vt 0.625000 0.750000
vt 0.625000 0.000000
vt 0.625000 0.250000
vt 0.625000 1.000000
vt 0.625000 1.000000
vt 0.625000 0.750000
vt 0.625000 1.000000
vt 0.625000 0.000000
vt 0.625000 0.250000
vt 0.625000 0.500000
vt 0.625000 0.500000
vt 0.625000 0.750000
vt 0.625000 0.250000
vt 0.625000 0.000000
vt 0.875000 0.500000
vt 0.875000 0.750000
vt 0.625000 0.000000
vt 0.625000 0.250000
vt 0.625000 1.000000
vn 0.1951 0.0000 -0.9808
vn 0.5556 0.0000 -0.8315
vn 0.8315 0.0000 -0.5556
vn 0.9808 0.0000 -0.1951
vn 0.9808 0.0000 0.1951
vn 0.8315 0.0000 0.5556
vn 0.5556 0.0000 0.8315
vn 0.1951 0.0000 0.9808
vn -0.1951 0.0000 0.9808
vn -0.5556 0.0000 0.8315
vn -0.8315 0.0000 0.5556
vn -0.9808 0.0000 0.1951
vn -0.9808 0.0000 -0.1951
vn -0.8315 0.0000 -0.5556
vn 0.0000 1.0000 0.0000
vn -0.5556 0.0000 -0.8315
vn -0.1951 0.0000 -0.9808
vn 0.5495 -0.1480 -0.8223
vn 0.5514 0.1223 -0.8252
vn 0.0000 -1.0000 0.0000
vn -0.5514 0.1223 0.8252
vn 0.8252 0.1223 -0.5514
vn -0.8252 0.1223 0.5514
vn 0.9734 0.1223 -0.1936
vn -0.9734 0.1223 0.1936
vn 0.9734 0.1223 0.1936
vn -0.9734 0.1223 -0.1936
vn 0.8252 0.1223 0.5514
vn -0.8252 0.1223 -0.5514
vn 0.5514 0.1223 0.8252
vn -0.5514 0.1223 -0.8252
vn 0.1936 0.1223 0.9734
vn 0.1936 0.1223 -0.9734
vn -0.1936 0.1223 -0.9734
vn -0.1936 0.1223 0.9734
vn -0.1929 -0.1480 -0.9700
vn -0.5495 -0.1480 -0.8223
vn -0.8223 -0.1480 -0.5495
vn -0.9700 -0.1480 -0.1929
vn -0.9700 -0.1480 0.1929
vn -0.8223 -0.1480 0.5495
vn -0.5495 -0.1480 0.8223
vn -0.1929 -0.1480 0.9700
vn 0.1929 -0.1480 0.9700
vn 0.5495 -0.1480 0.8223
vn 0.8223 -0.1480 0.5495
vn 0.9700 -0.1480 0.1929
vn 0.9700 -0.1480 -0.1929
vn 0.8223 -0.1480 -0.5495
vn 0.1478 0.6527 -0.7431
vn 0.4209 0.6527 -0.6299
vn 0.6299 0.6527 -0.4209
vn 0.7431 0.6527 -0.1478
vn 0.7431 0.6527 0.1478
vn 0.6299 0.6527 0.4209
vn 0.4209 0.6527 0.6299
vn 0.1478 0.6527 0.7431
vn -0.1478 0.6527 0.7431
vn -0.4209 0.6527 0.6299
vn -0.6299 0.6527 0.4209
vn -0.7431 0.6527 0.1478
vn -0.7431 0.6527 -0.1478
vn -0.6299 0.6527 -0.4209
vn -0.4209 0.6527 -0.6299
vn -0.1478 0.6527 -0.7431
vn 0.1929 -0.1480 -0.9700
vn -1.0000 0.0000 0.0000
vn 0.0000 0.0000 -1.0000
vn 1.0000 0.0000 0.0000
vn 0.0000 0.0000 1.0000
vn 0.0000 -0.0164 -0.9999
usemtl None
s off
f 1/1/1 2/2/1 4/3/1 3/4/1
f 3/4/2 4/3/2 6/5/2 5/6/2
f 5/6/3 6/5/3 8/7/3 7/8/3
f 7/8/4 8/7/4 10/9/4 9/10/4
f 9/10/5 10/9/5 12/11/5 11/12/5
f 11/12/6 12/11/6 14/13/6 13/14/6
f 13/14/7 14/13/7 16/15/7 15/16/7
f 15/16/8 16/15/8 18/17/8 17/18/8
f 17/18/9 18/17/9 20/19/9 19/20/9
f 19/20/10 20/19/10 22/21/10 21/22/10
f 21/22/11 22/21/11 24/23/11 23/24/11
f 23/24/12 24/23/12 26/25/12 25/26/12
f 25/26/13 26/25/13 28/27/13 27/28/13
f 27/28/14 28/27/14 30/29/14 29/30/14
f 6/5/15 4/3/15 33/31/15 35/32/15
f 29/30/16 30/29/16 32/33/16 31/34/16
f 31/34/17 32/33/17 2/35/17 1/36/17
f 99/37/18 97/38/18 116/39/18 120/40/18
f 35/32/19 33/31/19 49/41/19 51/42/19
f 16/15/15 14/13/15 39/43/15 40/44/15
f 26/25/15 24/23/15 44/45/15 45/46/15
f 12/11/15 10/9/15 37/47/15 38/48/15
f 22/21/15 20/19/15 42/49/15 43/50/15
f 32/33/15 30/29/15 47/51/15 48/52/15
f 8/7/15 6/5/15 35/32/15 36/53/15
f 18/17/15 16/15/15 40/44/15 41/54/15
f 4/3/15 2/2/15 34/55/15 33/31/15
f 28/27/15 26/25/15 45/46/15 46/56/15
f 14/13/15 12/11/15 38/48/15 39/43/15
f 24/23/15 22/21/15 43/50/15 44/45/15
f 2/35/15 32/33/15 48/52/15 34/57/15
f 10/9/15 8/7/15 36/53/15 37/47/15
f 20/19/15 18/17/15 41/54/15 42/49/15
f 30/29/15 28/27/15 46/56/15 47/51/15
f 56/58/20 55/59/20 71/60/20 72/61/20
f 43/50/21 42/49/21 58/62/21 59/63/21
f 36/53/22 35/32/22 51/42/22 52/64/22
f 44/45/23 43/50/23 59/63/23 60/65/23
f 37/47/24 36/53/24 52/64/24 53/66/24
f 45/46/25 44/45/25 60/65/25 61/67/25
f 38/48/26 37/47/26 53/66/26 54/68/26
f 46/56/27 45/46/27 61/67/27 62/69/27
f 39/43/28 38/48/28 54/68/28 55/59/28
f 47/51/29 46/56/29 62/69/29 63/70/29
f 40/44/30 39/43/30 55/59/30 56/58/30
f 48/52/31 47/51/31 63/70/31 64/71/31
f 41/54/32 40/44/32 56/58/32 57/72/32
f 33/31/33 34/55/33 50/73/33 49/41/33
f 34/57/34 48/52/34 64/71/34 50/74/34
f 42/49/35 41/54/35 57/72/35 58/62/35
f 77/75/12 76/76/12 92/77/12 93/78/12
f 64/71/20 63/70/20 79/79/20 80/80/20
f 57/72/20 56/58/20 72/61/20 73/81/20
f 49/41/20 50/73/20 66/82/20 65/83/20
f 50/74/20 64/71/20 80/80/20 66/84/20
f 58/62/20 57/72/20 73/81/20 74/85/20
f 51/42/20 49/41/20 65/83/20 67/86/20
f 59/63/20 58/62/20 74/85/20 75/87/20
f 52/64/20 51/42/20 67/86/20 68/88/20
f 60/65/20 59/63/20 75/87/20 76/76/20
f 53/66/20 52/64/20 68/88/20 69/89/20
f 61/67/20 60/65/20 76/76/20 77/75/20
f 54/68/20 53/66/20 69/89/20 70/90/20
f 62/69/20 61/67/20 77/75/20 78/91/20
f 55/59/20 54/68/20 70/90/20 71/60/20
f 63/70/20 62/69/20 78/91/20 79/79/20
f 83/92/15 81/93/15 97/38/15 99/37/15
f 70/90/5 69/89/5 85/94/5 86/95/5
f 78/91/13 77/75/13 93/78/13 94/96/13
f 71/60/6 70/90/6 86/95/6 87/97/6
f 79/79/14 78/91/14 94/96/14 95/98/14
f 72/61/7 71/60/7 87/97/7 88/99/7
f 80/80/16 79/79/16 95/98/16 96/100/16
f 73/81/8 72/61/8 88/99/8 89/101/8
f 65/83/1 66/82/1 82/102/1 81/93/1
f 66/84/17 80/80/17 96/100/17 82/103/17
f 74/85/9 73/81/9 89/101/9 90/104/9
f 67/86/2 65/83/2 81/93/2 83/92/2
f 75/87/10 74/85/10 90/104/10 91/105/10
f 68/88/3 67/86/3 83/92/3 84/106/3
f 76/76/11 75/87/11 91/105/11 92/77/11
f 69/89/4 68/88/4 84/106/4 85/94/4
f 131/107/15 129/108/15 114/109/15
f 91/105/15 90/104/15 106/110/15 107/111/15
f 84/106/15 83/92/15 99/37/15 100/112/15
f 92/77/15 91/105/15 107/111/15 108/113/15
f 85/94/15 84/106/15 100/112/15 101/114/15
f 93/78/15 92/77/15 108/113/15 109/115/15
f 86/95/15 85/94/15 101/114/15 102/116/15
f 94/96/15 93/78/15 109/115/15 110/117/15
f 87/97/15 86/95/15 102/116/15 103/118/15
f 95/98/15 94/96/15 110/117/15 111/119/15
f 88/99/15 87/97/15 103/118/15 104/120/15
f 96/100/15 95/98/15 111/119/15 112/121/15
f 89/101/15 88/99/15 104/120/15 105/122/15
f 81/93/15 82/102/15 98/123/15 97/38/15
f 82/103/15 96/100/15 112/121/15 98/124/15
f 90/104/15 89/101/15 105/122/15 106/110/15
f 133/125/15 131/107/15 114/109/15
f 119/126/15 115/127/15 114/109/15
f 121/128/15 119/126/15 114/109/15
f 135/129/15 133/125/15 114/109/15
f 118/130/15 145/131/15 114/109/15
f 137/132/15 135/129/15 114/109/15
f 123/133/15 121/128/15 114/109/15
f 139/134/15 137/132/15 114/109/15
f 125/135/15 123/133/15 114/109/15
f 141/136/15 139/134/15 114/109/15
f 127/137/15 125/135/15 114/109/15
f 143/138/15 141/136/15 114/109/15
f 129/108/15 127/137/15 114/109/15
f 145/131/15 143/138/15 114/109/15
f 1/139/20 3/140/20 113/141/20
f 3/140/20 5/142/20 113/141/20
f 5/142/20 7/143/20 113/141/20
f 7/143/20 9/144/20 113/141/20
f 9/144/20 11/145/20 113/141/20
f 11/145/20 13/146/20 113/141/20
f 13/146/20 15/147/20 113/141/20
f 15/147/20 17/148/20 113/141/20
f 17/148/20 19/149/20 113/141/20
f 19/149/20 21/150/20 113/141/20
f 21/150/20 23/151/20 113/141/20
f 23/151/20 25/152/20 113/141/20
f 25/152/20 27/153/20 113/141/20
f 27/153/20 29/154/20 113/141/20
f 29/154/20 31/155/20 113/141/20
f 31/155/20 1/139/20 113/141/20
f 98/124/36 112/121/36 146/156/36 117/157/36
f 112/121/37 111/119/37 144/158/37 146/156/37
f 111/119/38 110/117/38 142/159/38 144/158/38
f 110/117/39 109/115/39 140/160/39 142/159/39
f 109/115/40 108/113/40 138/161/40 140/160/40
f 108/113/41 107/111/41 136/162/41 138/161/41
f 107/111/42 106/110/42 134/163/42 136/162/42
f 106/110/43 105/122/43 132/164/43 134/163/43
f 105/122/44 104/120/44 130/165/44 132/164/44
f 104/120/45 103/118/45 128/166/45 130/165/45
f 103/118/46 102/116/46 126/167/46 128/166/46
f 102/116/47 101/114/47 124/168/47 126/167/47
f 101/114/48 100/112/48 122/169/48 124/168/48
f 100/112/49 99/37/49 120/40/49 122/169/49
f 115/127/15 118/130/15 114/109/15
f 116/39/50 117/170/50 118/171/50 115/172/50
f 120/40/51 116/39/51 115/173/51 119/174/51
f 122/169/52 120/40/52 119/175/52 121/176/52
f 124/168/53 122/169/53 121/177/53 123/178/53
f 126/167/54 124/168/54 123/179/54 125/180/54
f 128/166/55 126/167/55 125/181/55 127/182/55
f 130/165/56 128/166/56 127/183/56 129/184/56
f 132/164/57 130/165/57 129/185/57 131/186/57
f 134/163/58 132/164/58 131/187/58 133/188/58
f 136/162/59 134/163/59 133/189/59 135/190/59
f 138/161/60 136/162/60 135/191/60 137/192/60
f 140/160/61 138/161/61 137/193/61 139/194/61
f 142/159/62 140/160/62 139/195/62 141/196/62
f 144/158/63 142/159/63 141/197/63 143/198/63
f 146/156/64 144/158/64 143/199/64 145/200/64
f 117/157/65 146/156/65 145/201/65 118/202/65
f 97/38/66 98/123/66 117/170/66 116/39/66
f 147/203/67 148/204/67 150/205/67 149/206/67
f 149/206/68 150/205/68 154/207/68 153/208/68
f 153/208/69 154/207/69 152/209/69 151/210/69
f 151/210/70 152/209/70 148/211/70 147/212/70
f 158/213/69 157/214/69 161/215/69 162/216/69
f 152/209/20 154/207/20 157/214/20 158/213/20
f 150/205/20 148/204/20 155/217/20 156/218/20
f 148/211/70 152/209/70 158/213/70 155/219/70
f 154/207/71 150/205/71 156/218/71 157/214/71
f 159/220/68 162/216/68 166/221/68 163/222/68
f 156/218/67 155/217/67 159/223/67 160/224/67
f 155/219/70 158/213/70 162/216/70 159/220/70
f 157/214/68 156/218/68 160/224/68 161/215/68
f 166/221/69 165/225/69 169/226/69 170/227/69
f 161/215/70 160/224/70 164/228/70 165/225/70
f 162/216/15 161/215/15 165/225/15 166/221/15
f 160/224/15 159/223/15 163/229/15 164/228/15
f 169/226/15 168/230/15 167/231/15 170/227/15
f 164/228/67 163/229/67 167/232/67 168/233/67
f 163/222/70 166/221/70 170/227/70 167/234/70
f 165/225/68 164/228/68 168/233/68 169/226/68
