# Blender v2.90.1 OBJ File: 'Pawn.blend'
# www.blender.org
mtllib Pawn.mtl
o Icosphere
v 0.199895 3.158254 0.615199
v 0.723607 3.388038 0.525725
v -0.276388 3.388037 0.850649
v -0.894426 3.388042 0.000000
v -0.276388 3.388037 -0.850649
v 0.723607 3.388038 -0.525725
v 0.276388 4.360994 0.850649
v -0.723607 4.360994 0.525725
v -0.723607 4.360994 -0.525725
v 0.276388 4.360994 -0.850649
v 0.894426 4.360990 0.000000
v 0.000000 4.913774 0.000000
v 0.550255 3.158255 -0.399779
v -0.210174 3.158255 -0.646862
v 0.262869 3.388037 0.809012
v 0.850648 3.388039 0.000000
v -0.680151 3.158258 0.000000
v -0.210174 3.158255 0.646862
v -0.688189 3.388038 0.499997
v 0.550255 3.158255 0.399779
v -0.688189 3.388038 -0.499997
v 0.262869 3.388037 -0.809012
v 0.951058 3.913774 0.309013
v 0.951058 3.913774 -0.309013
v 0.000000 3.913774 1.000000
v 0.587786 3.913774 0.809017
v -0.951058 3.913774 0.309013
v -0.587786 3.913774 0.809017
v -0.587786 3.913774 -0.809017
v -0.951058 3.913774 -0.309013
v 0.587786 3.913774 -0.809017
v 0.000000 3.913774 -1.000000
v 0.688189 4.439510 0.499997
v -0.262869 4.439512 0.809012
v -0.850648 4.439510 0.000000
v -0.262869 4.439512 -0.809012
v 0.688189 4.439510 -0.499997
v 0.162456 4.764429 0.499995
v 0.525730 4.764426 0.000000
v -0.425323 4.764429 0.309011
v -0.425323 4.764429 -0.309011
v 0.162456 4.764429 -0.499995
v 0.646861 3.158255 0.000000
v -0.523321 3.158255 0.380214
v -0.523321 3.158255 -0.380214
v 0.199895 3.158254 -0.615199
v 0.319553 0.872199 0.983466
v 0.879645 0.872201 -0.639092
v -0.335988 0.872200 -1.034082
v -1.087300 0.872205 0.000000
v -0.335988 0.872200 1.034082
v 0.879645 0.872201 0.639092
v 1.034080 0.872201 0.000000
v -0.836590 0.872201 0.607816
v -0.836590 0.872201 -0.607816
v 0.319553 0.872199 -0.983466
v 0.437771 0.000840 1.347300
v 1.205070 0.000842 -0.875525
v -0.460288 0.000841 -1.416642
v -1.489548 0.000848 0.000000
v -0.460288 0.000841 1.416642
v 1.205070 0.000842 0.875525
v 1.416638 0.000842 0.000000
v -1.146088 0.000842 0.832678
v -1.146088 0.000842 -0.832678
v 0.437771 0.000840 -1.347300
v 0.401999 0.872199 1.237205
v 0.437771 0.759676 1.347300
v 1.205070 0.759678 -0.875525
v 1.106597 0.872201 -0.803981
v -0.460288 0.759677 -1.416642
v -0.422675 0.872200 -1.300880
v -1.367828 0.872207 0.000000
v -1.489548 0.759684 0.000000
v -0.422675 0.872200 1.300880
v -0.460288 0.759677 1.416642
v 1.106597 0.872201 0.803981
v 1.205070 0.759678 0.875525
v 1.416638 0.759678 0.000000
v 1.300877 0.872201 0.000000
v -1.052435 0.872201 0.764635
v -1.146088 0.759678 0.832678
v -1.146088 0.759678 -0.832678
v -1.052435 0.872201 -0.764635
v 0.437771 0.759676 -1.347300
v 0.401999 0.872199 -1.237205
vt 0.636363 0.157461
vt 0.727272 0.157461
vt 0.727272 0.157461
vt 0.636363 0.157461
vt 0.818181 0.157461
vt 0.909090 0.157461
vt 0.909090 0.157461
vt 0.818181 0.157461
vt 0.090909 0.157461
vt 0.090909 0.157461
vt 0.363636 0.157461
vt 0.454545 0.157461
vt 0.454545 0.157461
vt 0.363636 0.157461
vt 0.181818 0.157461
vt 0.272727 0.157461
vt 0.272727 0.157461
vt 0.181818 0.157461
vt 0.545454 0.157461
vt 0.545454 0.157461
vt 0.272727 0.157461
vt 0.181818 0.157461
vt 0.454545 0.157461
vt 0.545454 0.157461
vt 0.636363 0.157461
vt 0.363636 0.157461
vt 0.727272 0.157461
vt 0.681818 0.236191
vt 0.772726 0.236191
vt 0.909090 0.157461
vt 0.863635 0.236191
vt 0.954545 0.236191
vt 0.136363 0.236191
vt 0.227273 0.236191
vt 0.318182 0.236191
vt 0.409090 0.236191
vt 0.500000 0.236191
vt 0.590909 0.236191
vt 0.818181 0.314921
vt 0.727272 0.314921
vt 0.772726 0.393651
vt 1.000000 0.314921
vt 0.909091 0.314921
vt 0.954545 0.393651
vt 0.272727 0.314921
vt 0.181818 0.314921
vt 0.227273 0.393651
vt 0.454545 0.314921
vt 0.363636 0.314921
vt 0.409090 0.393651
vt 0.636363 0.314921
vt 0.545454 0.314921
vt 0.590909 0.393651
vt 0.500000 0.393651
vt 0.545454 0.472382
vt 0.318182 0.393651
vt 0.363636 0.472382
vt 0.136363 0.393651
vt 0.181818 0.472382
vt 0.090909 0.314921
vt 0.863635 0.393651
vt 0.909090 0.472382
vt 0.681818 0.393651
vt 0.727272 0.472382
vt 0.818181 0.157461
vt 0.045454 0.236191
vt 0.090909 0.157461
vt 0.545454 0.157461
vt 0.636363 0.157461
vt 0.636363 0.157461
vt 0.545454 0.157461
vt 0.636363 0.157461
vt 0.545454 0.157461
vt 0.727272 0.157461
vt 0.727272 0.157461
vt 0.272727 0.157461
vt 0.363636 0.157461
vt 0.363636 0.157461
vt 0.272727 0.157461
vt 0.181818 0.157461
vt 0.181818 0.157461
vt 0.454545 0.157461
vt 0.363636 0.157461
vt 0.818181 0.157461
vt 0.909090 0.157461
vt 0.909090 0.157461
vt 0.818181 0.157461
vt 0.454545 0.157461
vt 0.454545 0.157461
vt 0.090909 0.157461
vt 0.090909 0.157461
vt 0.272727 0.157461
vt 0.727272 0.157461
vt 0.090909 0.157461
vt 0.909090 0.157461
vt 0.181818 0.157461
vt 0.818181 0.157461
vn 0.9591 0.1625 0.2318
vn 0.0760 0.1625 0.9838
vn -0.6397 0.1625 0.7513
vn 0.0760 0.1625 -0.9838
vn -0.7002 -0.6529 -0.2888
vn 0.5168 0.1625 -0.8405
vn -0.9122 0.1625 -0.3762
vn 0.3967 -0.6529 -0.6452
vn 0.7362 -0.6529 -0.1779
vn -0.4910 -0.6529 -0.5767
vn 0.8044 -0.1071 0.5844
vn -0.3072 -0.1071 0.9456
vn -0.9942 -0.1071 0.0000
vn -0.3072 -0.1071 -0.9456
vn 0.8044 -0.1071 -0.5844
vn 0.4089 0.6617 0.6284
vn -0.4713 0.6617 0.5831
vn -0.7002 0.6617 -0.2680
vn 0.0385 0.6617 -0.7488
vn 0.7240 0.6617 -0.1947
vn 0.2680 0.9435 -0.1947
vn 0.4911 0.7947 -0.3568
vn 0.4089 0.6617 -0.6284
vn -0.1024 0.9435 -0.3151
vn -0.1876 0.7947 -0.5773
vn -0.4713 0.6617 -0.5831
vn -0.3313 0.9435 0.0000
vn -0.6071 0.7947 0.0000
vn -0.7002 0.6617 0.2680
vn -0.1024 0.9435 0.3151
vn -0.1876 0.7947 0.5773
vn 0.0385 0.6617 0.7488
vn 0.2680 0.9435 0.1947
vn 0.4911 0.7947 0.3568
vn 0.7240 0.6617 0.1947
vn 0.8897 0.3304 -0.3151
vn 0.7947 0.1876 -0.5773
vn 0.5746 0.3304 -0.7488
vn -0.0247 0.3304 -0.9435
vn -0.3035 0.1876 -0.9342
vn -0.5346 0.3304 -0.7779
vn -0.9050 0.3304 -0.2680
vn -0.9822 0.1876 0.0000
vn -0.9050 0.3304 0.2680
vn -0.5346 0.3304 0.7779
vn -0.3035 0.1876 0.9342
vn -0.0247 0.3304 0.9435
vn 0.5746 0.3304 0.7488
vn 0.7947 0.1876 0.5773
vn 0.8897 0.3304 0.3151
vn 0.3066 0.1256 -0.9435
vn 0.3035 -0.1876 -0.9342
vn 0.9248 -0.3080 0.2235
vn -0.8026 0.1256 -0.5831
vn -0.7947 -0.1876 -0.5773
vn 0.4983 -0.3080 0.8105
vn -0.8026 0.1256 0.5831
vn -0.7947 -0.1876 0.5773
vn -0.6168 -0.3080 0.7244
vn 0.3066 0.1256 0.9435
vn 0.3035 -0.1876 0.9342
vn 0.0583 -0.6529 -0.7552
vn 0.9921 0.1256 0.0000
vn 0.9822 -0.1876 0.0000
vn -0.7002 -0.6529 0.2888
vn -0.9122 0.1625 0.3762
vn 0.9248 -0.3080 -0.2235
vn 0.0732 -0.3080 0.9486
vn 0.0583 -0.6529 0.7552
vn 0.4983 -0.3080 -0.8105
vn -0.8795 -0.3080 0.3628
vn 0.3967 -0.6529 0.6452
vn 0.0732 -0.3080 -0.9486
vn -0.4910 -0.6529 0.5767
vn 0.5168 0.1625 0.8405
vn -0.6168 -0.3080 -0.7244
vn 0.7362 -0.6529 0.1779
vn 0.9591 0.1625 -0.2318
vn -0.8795 -0.3080 -0.3628
vn -0.6397 0.1625 -0.7513
vn 0.9720 0.0000 -0.2349
vn -0.0000 1.0000 -0.0000
vn 0.9720 0.0000 0.2349
vn -0.6483 0.0000 -0.7614
vn -0.9244 0.0000 -0.3813
vn 0.0770 0.0000 0.9970
vn 0.5238 0.0000 -0.8519
vn -0.6483 0.0000 0.7614
vn -0.9244 0.0000 0.3813
vn 0.0770 0.0000 -0.9970
vn -0.0000 -1.0000 0.0000
vn 0.6873 0.7071 0.1661
vn 0.6873 0.7071 -0.1661
vn 0.3704 0.7071 -0.6024
vn 0.0544 0.7071 -0.7050
vn -0.4584 0.7071 -0.5384
vn 0.3704 0.7071 0.6024
vn 0.0544 0.7071 0.7050
vn -0.4584 0.7071 0.5384
vn -0.6537 0.7071 0.2696
vn -0.6537 0.7071 -0.2696
vn 0.5238 0.0000 0.8519
usemtl None
s off
f 43/1/1 20/2/1 52/3/1 53/4/1
f 1/5/2 18/6/2 51/7/2 47/8/2
f 18/6/3 44/9/3 54/10/3 51/7/3
f 14/11/4 46/12/4 56/13/4 49/14/4
f 4/15/5 21/16/5 45/17/5 17/18/5
f 46/12/6 13/19/6 48/20/6 56/13/6
f 17/18/7 45/17/7 55/21/7 50/22/7
f 22/23/8 6/24/8 13/19/8 46/12/8
f 6/24/9 16/25/9 43/1/9 13/19/9
f 21/16/10 5/26/10 14/11/10 45/17/10
f 2/27/11 23/28/11 26/29/11
f 3/30/12 25/31/12 28/32/12
f 4/15/13 27/33/13 30/34/13
f 5/26/14 29/35/14 32/36/14
f 6/24/15 31/37/15 24/38/15
f 7/39/16 33/40/16 38/41/16
f 8/42/17 34/43/17 40/44/17
f 9/45/18 35/46/18 41/47/18
f 10/48/19 36/49/19 42/50/19
f 11/51/20 37/52/20 39/53/20
f 39/53/21 42/54/21 12/55/21
f 39/53/22 37/52/22 42/54/22
f 37/52/23 10/48/23 42/54/23
f 42/50/24 41/56/24 12/57/24
f 42/50/25 36/49/25 41/56/25
f 36/49/26 9/45/26 41/56/26
f 41/47/27 40/58/27 12/59/27
f 41/47/28 35/46/28 40/58/28
f 35/46/29 8/60/29 40/58/29
f 40/44/30 38/61/30 12/62/30
f 40/44/31 34/43/31 38/61/31
f 34/43/32 7/39/32 38/61/32
f 38/41/33 39/63/33 12/64/33
f 38/41/34 33/40/34 39/63/34
f 33/40/35 11/51/35 39/63/35
f 24/38/36 37/52/36 11/51/36
f 24/38/37 31/37/37 37/52/37
f 31/37/38 10/48/38 37/52/38
f 32/36/39 36/49/39 10/48/39
f 32/36/40 29/35/40 36/49/40
f 29/35/41 9/45/41 36/49/41
f 30/34/42 35/46/42 9/45/42
f 30/34/43 27/33/43 35/46/43
f 27/33/44 8/60/44 35/46/44
f 28/32/45 34/43/45 8/42/45
f 28/32/46 25/31/46 34/43/46
f 25/31/47 7/39/47 34/43/47
f 26/29/48 33/40/48 7/39/48
f 26/29/49 23/28/49 33/40/49
f 23/28/50 11/51/50 33/40/50
f 31/37/51 32/36/51 10/48/51
f 31/37/52 22/23/52 32/36/52
f 2/27/53 16/25/53 23/28/53
f 29/35/54 30/34/54 9/45/54
f 29/35/55 21/16/55 30/34/55
f 26/29/56 15/65/56 2/27/56
f 27/33/57 28/66/57 8/60/57
f 27/33/58 19/67/58 28/66/58
f 28/66/59 19/67/59 3/30/59
f 25/31/60 26/29/60 7/39/60
f 25/31/61 15/65/61 26/29/61
f 5/26/62 22/23/62 46/12/62 14/11/62
f 23/28/63 24/38/63 11/51/63
f 23/28/64 16/25/64 24/38/64
f 19/67/65 4/15/65 17/18/65 44/9/65
f 44/9/66 17/18/66 50/22/66 54/10/66
f 24/38/67 16/25/67 6/24/67
f 3/30/68 15/65/68 25/31/68
f 15/65/69 3/30/69 18/6/69 1/5/69
f 6/24/70 22/23/70 31/37/70
f 4/15/71 19/67/71 27/33/71
f 2/27/72 15/65/72 1/5/72 20/2/72
f 32/36/73 22/23/73 5/26/73
f 3/30/74 19/67/74 44/9/74 18/6/74
f 20/2/75 1/5/75 47/8/75 52/3/75
f 5/26/76 21/16/76 29/35/76
f 16/25/77 2/27/77 20/2/77 43/1/77
f 13/19/78 43/1/78 53/4/78 48/20/78
f 30/34/79 21/16/79 4/15/79
f 45/17/80 14/11/80 49/14/80 55/21/80
f 69/68/81 79/69/81 63/70/81 58/71/81
f 48/20/82 53/4/82 80/72/82 70/73/82
f 79/69/83 78/74/83 62/75/83 63/70/83
f 83/76/84 71/77/84 59/78/84 65/79/84
f 74/80/85 83/76/85 65/79/85 60/81/85
f 49/14/82 56/13/82 86/82/82 72/83/82
f 68/84/86 76/85/86 61/86/86 57/87/86
f 85/88/87 69/68/87 58/71/87 66/89/87
f 76/85/88 82/90/88 64/91/88 61/86/88
f 55/21/82 49/14/82 72/83/82 84/92/82
f 53/4/82 52/3/82 77/93/82 80/72/82
f 51/7/82 54/10/82 81/94/82 75/95/82
f 82/90/89 74/80/89 60/81/89 64/91/89
f 56/13/82 48/20/82 70/73/82 86/82/82
f 54/10/82 50/22/82 73/96/82 81/94/82
f 52/3/82 47/8/82 67/97/82 77/93/82
f 71/77/90 85/88/90 66/89/90 59/78/90
f 50/22/82 55/21/82 84/92/82 73/96/82
f 47/8/82 51/7/82 75/95/82 67/97/82
f 63/70/91 62/75/91 57/87/91 61/86/91 64/91/91 60/81/91 65/79/91 59/78/91 66/89/91 58/71/91
f 78/74/92 79/69/92 80/72/92 77/93/92
f 70/73/93 80/72/93 79/69/93 69/68/93
f 69/68/94 85/88/94 86/82/94 70/73/94
f 72/83/95 86/82/95 85/88/95 71/77/95
f 71/77/96 83/76/96 84/92/96 72/83/96
f 77/93/97 67/97/97 68/84/97 78/74/97
f 76/85/98 68/84/98 67/97/98 75/95/98
f 75/95/99 81/94/99 82/90/99 76/85/99
f 74/80/100 82/90/100 81/94/100 73/96/100
f 73/96/101 84/92/101 83/76/101 74/80/101
f 78/74/102 68/84/102 57/87/102 62/75/102
